<?xml version="1.0" encoding="UTF-8" standalone="no"?>
<!-- Created with Inkscape (http://www.inkscape.org/) -->

<svg
   xmlns:dc="http://purl.org/dc/elements/1.1/"
   xmlns:cc="http://creativecommons.org/ns#"
   xmlns:rdf="http://www.w3.org/1999/02/22-rdf-syntax-ns#"
   xmlns:svg="http://www.w3.org/2000/svg"
   xmlns="http://www.w3.org/2000/svg"
   xmlns:sodipodi="http://sodipodi.sourceforge.net/DTD/sodipodi-0.dtd"
   xmlns:inkscape="http://www.inkscape.org/namespaces/inkscape"
   width="239.55487mm"
   height="239.70145mm"
   viewBox="0 0 239.55488 239.70145"
   version="1.1"
   id="svg8"
   inkscape:version="0.92.1 r15371"
   sodipodi:docname="phone_icon.svg">
  <defs
     id="defs2" />
  <sodipodi:namedview
     id="base"
     pagecolor="#ffffff"
     bordercolor="#666666"
     borderopacity="1.0"
     inkscape:pageopacity="0.0"
     inkscape:pageshadow="2"
     inkscape:zoom="0.35355339"
     inkscape:cx="995.7325"
     inkscape:cy="603.08918"
     inkscape:document-units="mm"
     inkscape:current-layer="layer1"
     showgrid="false"
     inkscape:pagecheckerboard="true"
     inkscape:snap-global="true"
     fit-margin-top="0"
     fit-margin-left="0"
     fit-margin-right="0"
     fit-margin-bottom="0"
     inkscape:window-width="1920"
     inkscape:window-height="1018"
     inkscape:window-x="-8"
     inkscape:window-y="-8"
     inkscape:window-maximized="1"
     showguides="true"
     inkscape:guide-bbox="true"
     showborder="true"
     inkscape:snap-bbox="true"
     inkscape:snap-to-guides="true">
    <sodipodi:guide
       position="105.79374,125.06891"
       orientation="0,1"
       id="guide4491"
       inkscape:locked="false" />
    <sodipodi:guide
       position="-28.045834,88.635002"
       orientation="0,1"
       id="guide4493"
       inkscape:locked="true"
       inkscape:label=""
       inkscape:color="rgb(0,0,255)" />
  </sodipodi:namedview>
  <metadata
     id="metadata5">
    <rdf:RDF>
      <cc:Work
         rdf:about="">
        <dc:format>image/svg+xml</dc:format>
        <dc:type
           rdf:resource="http://purl.org/dc/dcmitype/StillImage" />
        <dc:title></dc:title>
      </cc:Work>
    </rdf:RDF>
  </metadata>
  <g
     inkscape:label="Layer 1"
     inkscape:groupmode="layer"
     id="layer1"
     transform="translate(-1.1344491,-60.318743)">
    <path
       style="opacity:1;fill:#fffdfd;fill-opacity:1;stroke:#ff003a;stroke-width:0.30000001;stroke-miterlimit:4;stroke-dasharray:none;stroke-opacity:1"
       d="m 72.556118,153.78837 c -23.059174,23.08321 -60.575482,62.84295 -70.7268197,100.72825 -2.01765682,7.53004 1.9187459,16.58701 6.3164348,23.71861 L 60.644575,225.73641 c -1.017286,-3.00246 -1.689841,-6.08139 -1.675039,-9.05336 0.0326,-6.55411 3.086941,-14.10527 6.929217,-18.40083 13.36045,-14.93645 35.654637,-37.54452 35.654637,-37.54452 0,0 22.60807,-22.2942 37.54455,-35.65464 4.29553,-3.8423 11.84667,-6.89661 18.40082,-6.92921 2.97197,-0.0148 6.05126,0.65738 9.05371,1.67465 l 52.49845,-52.498462 c -7.13158,-4.3977 -16.1886,-8.334111 -23.71861,-6.316441 -44.90107,12.031216 -92.43499,62.500833 -111.718595,81.784433 -3.013049,3.01306 -6.787384,6.71567 -11.057628,10.99031 z M 19.314052,291.26859 c 2.639858,1.10165 15.654098,7.41286 18.269098,8.57275 L 78.047946,259.37655 68.922962,241.3951 Z M 183.2695,127.31315 c 6.5475,2.29564 12.71007,5.14686 19.1717,7.67015 l 38.06745,-38.067449 c 0,0 -5.99367,-12.712781 -6.97408,-15.061224 -0.49143,-1.177243 -1.00079,-2.390283 -1.4236,-3.382937 z"
       id="rect4485"
       inkscape:connector-curvature="0"
       sodipodi:nodetypes="cccccccscccccccccccccccccc" />
  </g>
</svg>
